<mxfile host="app.diagrams.net" modified="2023-10-21T11:00:59.371Z" agent="Mozilla/5.0 (Windows NT 10.0; Win64; x64) AppleWebKit/537.36 (KHTML, like Gecko) Chrome/118.0.0.0 Safari/537.36" etag="5pHBrTicKaQ-8ZM3sjpy" version="22.0.6" type="device">
  <diagram name="Page-1" id="2YBvvXClWsGukQMizWep">
    <mxGraphModel dx="875" dy="445" grid="1" gridSize="10" guides="1" tooltips="1" connect="1" arrows="1" fold="1" page="1" pageScale="1" pageWidth="850" pageHeight="1100" math="0" shadow="0">
      <root>
        <mxCell id="0" />
        <mxCell id="1" parent="0" />
        <mxCell id="P9C6h9ixi1EzGiGsPTIk-1" value="" style="endArrow=none;dashed=1;html=1;rounded=0;" parent="1" edge="1">
          <mxGeometry width="50" height="50" relative="1" as="geometry">
            <mxPoint x="335" y="450" as="sourcePoint" />
            <mxPoint x="335" y="130" as="targetPoint" />
          </mxGeometry>
        </mxCell>
        <mxCell id="P9C6h9ixi1EzGiGsPTIk-2" value="" style="rounded=0;whiteSpace=wrap;html=1;" parent="1" vertex="1">
          <mxGeometry x="200" y="214" width="440" height="126" as="geometry" />
        </mxCell>
        <mxCell id="P9C6h9ixi1EzGiGsPTIk-3" value=":System" style="shape=umlLifeline;perimeter=lifelinePerimeter;whiteSpace=wrap;html=1;container=0;dropTarget=0;collapsible=0;recursiveResize=0;outlineConnect=0;portConstraint=eastwest;newEdgeStyle={&quot;edgeStyle&quot;:&quot;elbowEdgeStyle&quot;,&quot;elbow&quot;:&quot;vertical&quot;,&quot;curved&quot;:0,&quot;rounded&quot;:0};" parent="1" vertex="1">
          <mxGeometry x="540" y="78" width="100" height="362" as="geometry" />
        </mxCell>
        <mxCell id="P9C6h9ixi1EzGiGsPTIk-4" value="" style="html=1;points=[];perimeter=orthogonalPerimeter;outlineConnect=0;targetShapes=umlLifeline;portConstraint=eastwest;newEdgeStyle={&quot;edgeStyle&quot;:&quot;elbowEdgeStyle&quot;,&quot;elbow&quot;:&quot;vertical&quot;,&quot;curved&quot;:0,&quot;rounded&quot;:0};" parent="P9C6h9ixi1EzGiGsPTIk-3" vertex="1">
          <mxGeometry x="45" y="80" width="10" height="260" as="geometry" />
        </mxCell>
        <mxCell id="P9C6h9ixi1EzGiGsPTIk-5" value="User" style="shape=umlActor;verticalLabelPosition=bottom;verticalAlign=top;html=1;outlineConnect=0;" parent="1" vertex="1">
          <mxGeometry x="325" y="59" width="20" height="50" as="geometry" />
        </mxCell>
        <mxCell id="P9C6h9ixi1EzGiGsPTIk-6" value="" style="html=1;points=[];perimeter=orthogonalPerimeter;outlineConnect=0;targetShapes=umlLifeline;portConstraint=eastwest;newEdgeStyle={&quot;edgeStyle&quot;:&quot;elbowEdgeStyle&quot;,&quot;elbow&quot;:&quot;vertical&quot;,&quot;curved&quot;:0,&quot;rounded&quot;:0};" parent="1" vertex="1">
          <mxGeometry x="330" y="161" width="10" height="259" as="geometry" />
        </mxCell>
        <mxCell id="P9C6h9ixi1EzGiGsPTIk-7" value="" style="endArrow=classic;html=1;rounded=0;" parent="1" target="P9C6h9ixi1EzGiGsPTIk-4" edge="1">
          <mxGeometry width="50" height="50" relative="1" as="geometry">
            <mxPoint x="340" y="200" as="sourcePoint" />
            <mxPoint x="500" y="200" as="targetPoint" />
          </mxGeometry>
        </mxCell>
        <mxCell id="P9C6h9ixi1EzGiGsPTIk-8" value="" style="html=1;labelBackgroundColor=#ffffff;startArrow=none;startFill=0;startSize=6;endArrow=classic;endFill=1;endSize=6;jettySize=auto;orthogonalLoop=1;strokeWidth=1;dashed=1;fontSize=14;rounded=0;" parent="1" edge="1">
          <mxGeometry width="60" height="60" relative="1" as="geometry">
            <mxPoint x="585" y="254" as="sourcePoint" />
            <mxPoint x="340" y="254" as="targetPoint" />
          </mxGeometry>
        </mxCell>
        <mxCell id="P9C6h9ixi1EzGiGsPTIk-9" value="ExploreMenu(food_items, descriptions , prices)" style="text;strokeColor=none;align=center;fillColor=none;html=1;verticalAlign=middle;whiteSpace=wrap;rounded=0;" parent="1" vertex="1">
          <mxGeometry x="344" y="168" width="240" height="30" as="geometry" />
        </mxCell>
        <mxCell id="P9C6h9ixi1EzGiGsPTIk-10" value="Restaurant has no menu" style="text;strokeColor=none;align=center;fillColor=none;html=1;verticalAlign=middle;whiteSpace=wrap;rounded=0;" parent="1" vertex="1">
          <mxGeometry x="386" y="221.5" width="150" height="30" as="geometry" />
        </mxCell>
        <mxCell id="P9C6h9ixi1EzGiGsPTIk-11" value="" style="endArrow=none;dashed=1;html=1;rounded=0;exitX=-0.003;exitY=0.634;exitDx=0;exitDy=0;exitPerimeter=0;" parent="1" edge="1">
          <mxGeometry width="50" height="50" relative="1" as="geometry">
            <mxPoint x="198.68000000000006" y="276.4200000000001" as="sourcePoint" />
            <mxPoint x="640" y="273" as="targetPoint" />
          </mxGeometry>
        </mxCell>
        <mxCell id="P9C6h9ixi1EzGiGsPTIk-12" value="" style="endArrow=classic;html=1;rounded=0;" parent="1" edge="1">
          <mxGeometry width="50" height="50" relative="1" as="geometry">
            <mxPoint x="340" y="325" as="sourcePoint" />
            <mxPoint x="585" y="325" as="targetPoint" />
          </mxGeometry>
        </mxCell>
        <mxCell id="P9C6h9ixi1EzGiGsPTIk-13" value="" style="verticalLabelPosition=bottom;verticalAlign=top;html=1;shape=card;whiteSpace=wrap;size=20;arcSize=12;rotation=-180;" parent="1" vertex="1">
          <mxGeometry x="200" y="214" width="80" height="30" as="geometry" />
        </mxCell>
        <mxCell id="P9C6h9ixi1EzGiGsPTIk-14" value="&lt;b&gt;ALT&lt;/b&gt;" style="text;strokeColor=none;align=center;fillColor=none;html=1;verticalAlign=middle;whiteSpace=wrap;rounded=0;" parent="1" vertex="1">
          <mxGeometry x="200" y="214" width="60" height="30" as="geometry" />
        </mxCell>
        <mxCell id="P9C6h9ixi1EzGiGsPTIk-15" value="InvalidMenu" style="text;strokeColor=none;align=center;fillColor=none;html=1;verticalAlign=middle;whiteSpace=wrap;rounded=0;" parent="1" vertex="1">
          <mxGeometry x="208" y="245" width="108" height="30" as="geometry" />
        </mxCell>
        <mxCell id="P9C6h9ixi1EzGiGsPTIk-16" value="" style="html=1;labelBackgroundColor=#ffffff;startArrow=none;startFill=0;startSize=6;endArrow=classic;endFill=1;endSize=6;jettySize=auto;orthogonalLoop=1;strokeWidth=1;dashed=1;fontSize=14;rounded=0;" parent="1" edge="1">
          <mxGeometry width="60" height="60" relative="1" as="geometry">
            <mxPoint x="583.5" y="381.5" as="sourcePoint" />
            <mxPoint x="338.5" y="381.5" as="targetPoint" />
          </mxGeometry>
        </mxCell>
        <mxCell id="P9C6h9ixi1EzGiGsPTIk-17" value="Menu Displayed" style="text;strokeColor=none;align=center;fillColor=none;html=1;verticalAlign=middle;whiteSpace=wrap;rounded=0;" parent="1" vertex="1">
          <mxGeometry x="393.75" y="350" width="132.5" height="30" as="geometry" />
        </mxCell>
        <mxCell id="P9C6h9ixi1EzGiGsPTIk-18" value="ValidMenu" style="text;strokeColor=none;align=center;fillColor=none;html=1;verticalAlign=middle;whiteSpace=wrap;rounded=0;" parent="1" vertex="1">
          <mxGeometry x="208" y="290" width="108" height="30" as="geometry" />
        </mxCell>
        <mxCell id="P9C6h9ixi1EzGiGsPTIk-19" value="ExploreMenu(food_items, descriptions , prices)" style="text;strokeColor=none;align=center;fillColor=none;html=1;verticalAlign=middle;whiteSpace=wrap;rounded=0;" parent="1" vertex="1">
          <mxGeometry x="340" y="290" width="240" height="30" as="geometry" />
        </mxCell>
        <mxCell id="P9C6h9ixi1EzGiGsPTIk-20" value="&lt;font style=&quot;font-size: 30px;&quot;&gt;X&lt;/font&gt;" style="text;strokeColor=none;align=center;fillColor=none;html=1;verticalAlign=middle;whiteSpace=wrap;rounded=0;" parent="1" vertex="1">
          <mxGeometry x="322" y="452.01" width="27" height="10" as="geometry" />
        </mxCell>
        <mxCell id="P9C6h9ixi1EzGiGsPTIk-21" value="&lt;font style=&quot;font-size: 30px;&quot;&gt;X&lt;/font&gt;" style="text;strokeColor=none;align=center;fillColor=none;html=1;verticalAlign=middle;whiteSpace=wrap;rounded=0;" parent="1" vertex="1">
          <mxGeometry x="577" y="443.28999999999996" width="27" height="10" as="geometry" />
        </mxCell>
      </root>
    </mxGraphModel>
  </diagram>
</mxfile>
